<mxfile host="app.diagrams.net" modified="2024-01-15T14:24:58.917Z" agent="Mozilla/5.0 (X11; Linux x86_64) AppleWebKit/537.36 (KHTML, like Gecko) Chrome/120.0.0.0 Safari/537.36" etag="7T-7IUukrtc8ilvn0ZZn" version="22.1.18" type="device">
  <diagram name="Page-1" id="44Tj-GFW3fMedjhEZPAN">
    <mxGraphModel dx="2765" dy="1051" grid="1" gridSize="10" guides="1" tooltips="1" connect="1" arrows="1" fold="1" page="1" pageScale="1" pageWidth="850" pageHeight="1100" math="0" shadow="0">
      <root>
        <mxCell id="0" />
        <mxCell id="1" parent="0" />
        <mxCell id="BQUtY0QNq32hWSpwtPlx-1" value="AccountClosed&lt;br&gt;&lt;br&gt;AccountEvent&lt;br&gt;ClosureRejected&lt;br&gt;&lt;br&gt;CreditRejected&lt;br&gt;&lt;br&gt;&lt;br&gt;DebitRejected&lt;br&gt;NameChanged" style="rounded=1;whiteSpace=wrap;html=1;" vertex="1" parent="1">
          <mxGeometry x="120" y="80" width="200" height="200" as="geometry" />
        </mxCell>
        <mxCell id="BQUtY0QNq32hWSpwtPlx-2" value="&lt;div&gt;AccountCommand&lt;/div&gt;&lt;div&gt;ChangeName&lt;/div&gt;&lt;div&gt;CloseAccount&lt;/div&gt;" style="rounded=1;whiteSpace=wrap;html=1;" vertex="1" parent="1">
          <mxGeometry x="-70" y="80" width="170" height="200" as="geometry" />
        </mxCell>
        <mxCell id="BQUtY0QNq32hWSpwtPlx-20" style="edgeStyle=none;shape=connector;rounded=0;orthogonalLoop=1;jettySize=auto;html=1;labelBackgroundColor=default;strokeColor=default;align=center;verticalAlign=middle;fontFamily=Helvetica;fontSize=11;fontColor=default;endArrow=classic;" edge="1" parent="1" source="BQUtY0QNq32hWSpwtPlx-3" target="BQUtY0QNq32hWSpwtPlx-11">
          <mxGeometry relative="1" as="geometry" />
        </mxCell>
        <mxCell id="BQUtY0QNq32hWSpwtPlx-3" value="CreateAccount" style="rounded=1;whiteSpace=wrap;html=1;" vertex="1" parent="1">
          <mxGeometry x="470" y="360" width="120" height="60" as="geometry" />
        </mxCell>
        <mxCell id="BQUtY0QNq32hWSpwtPlx-26" style="edgeStyle=none;shape=connector;rounded=0;orthogonalLoop=1;jettySize=auto;html=1;labelBackgroundColor=default;strokeColor=default;align=center;verticalAlign=middle;fontFamily=Helvetica;fontSize=11;fontColor=default;endArrow=classic;" edge="1" parent="1" source="BQUtY0QNq32hWSpwtPlx-6" target="BQUtY0QNq32hWSpwtPlx-12">
          <mxGeometry relative="1" as="geometry" />
        </mxCell>
        <mxCell id="BQUtY0QNq32hWSpwtPlx-6" value="ConfirmDebit" style="rounded=1;whiteSpace=wrap;html=1;" vertex="1" parent="1">
          <mxGeometry x="1230" y="360" width="120" height="60" as="geometry" />
        </mxCell>
        <mxCell id="BQUtY0QNq32hWSpwtPlx-25" style="edgeStyle=none;shape=connector;rounded=0;orthogonalLoop=1;jettySize=auto;html=1;entryX=0;entryY=0.5;entryDx=0;entryDy=0;labelBackgroundColor=default;strokeColor=default;align=center;verticalAlign=middle;fontFamily=Helvetica;fontSize=11;fontColor=default;endArrow=classic;" edge="1" parent="1" source="BQUtY0QNq32hWSpwtPlx-7" target="BQUtY0QNq32hWSpwtPlx-18">
          <mxGeometry relative="1" as="geometry" />
        </mxCell>
        <mxCell id="BQUtY0QNq32hWSpwtPlx-7" value="Credit" style="rounded=1;whiteSpace=wrap;html=1;" vertex="1" parent="1">
          <mxGeometry x="850" y="490" width="120" height="60" as="geometry" />
        </mxCell>
        <mxCell id="BQUtY0QNq32hWSpwtPlx-22" style="edgeStyle=none;shape=connector;rounded=0;orthogonalLoop=1;jettySize=auto;html=1;labelBackgroundColor=default;strokeColor=default;align=center;verticalAlign=middle;fontFamily=Helvetica;fontSize=11;fontColor=default;endArrow=classic;" edge="1" parent="1" source="BQUtY0QNq32hWSpwtPlx-8" target="BQUtY0QNq32hWSpwtPlx-13">
          <mxGeometry relative="1" as="geometry" />
        </mxCell>
        <mxCell id="BQUtY0QNq32hWSpwtPlx-8" value="Debit" style="rounded=1;whiteSpace=wrap;html=1;" vertex="1" parent="1">
          <mxGeometry x="850" y="360" width="120" height="60" as="geometry" />
        </mxCell>
        <mxCell id="BQUtY0QNq32hWSpwtPlx-9" value="Actor" style="shape=umlActor;verticalLabelPosition=bottom;verticalAlign=top;html=1;outlineConnect=0;" vertex="1" parent="1">
          <mxGeometry x="410" y="350" width="30" height="60" as="geometry" />
        </mxCell>
        <mxCell id="BQUtY0QNq32hWSpwtPlx-10" value="Actor" style="shape=umlActor;verticalLabelPosition=bottom;verticalAlign=top;html=1;outlineConnect=0;" vertex="1" parent="1">
          <mxGeometry x="410" y="480" width="30" height="60" as="geometry" />
        </mxCell>
        <mxCell id="BQUtY0QNq32hWSpwtPlx-11" value="AccountCreated" style="rounded=1;whiteSpace=wrap;html=1;" vertex="1" parent="1">
          <mxGeometry x="641" y="360" width="120" height="60" as="geometry" />
        </mxCell>
        <mxCell id="BQUtY0QNq32hWSpwtPlx-12" value="DebitConfirmed" style="rounded=1;whiteSpace=wrap;html=1;" vertex="1" parent="1">
          <mxGeometry x="1390" y="360" width="120" height="60" as="geometry" />
        </mxCell>
        <mxCell id="BQUtY0QNq32hWSpwtPlx-13" value="Debited" style="rounded=1;whiteSpace=wrap;html=1;" vertex="1" parent="1">
          <mxGeometry x="1060" y="360" width="120" height="60" as="geometry" />
        </mxCell>
        <mxCell id="BQUtY0QNq32hWSpwtPlx-23" style="edgeStyle=none;shape=connector;rounded=0;orthogonalLoop=1;jettySize=auto;html=1;entryX=0;entryY=0.5;entryDx=0;entryDy=0;labelBackgroundColor=default;strokeColor=default;align=center;verticalAlign=middle;fontFamily=Helvetica;fontSize=11;fontColor=default;endArrow=classic;" edge="1" parent="1" source="BQUtY0QNq32hWSpwtPlx-14" target="BQUtY0QNq32hWSpwtPlx-15">
          <mxGeometry relative="1" as="geometry" />
        </mxCell>
        <mxCell id="BQUtY0QNq32hWSpwtPlx-14" value="CreateAccount" style="rounded=1;whiteSpace=wrap;html=1;" vertex="1" parent="1">
          <mxGeometry x="470" y="490" width="120" height="60" as="geometry" />
        </mxCell>
        <mxCell id="BQUtY0QNq32hWSpwtPlx-15" value="AccountCreated" style="rounded=1;whiteSpace=wrap;html=1;" vertex="1" parent="1">
          <mxGeometry x="641" y="490" width="120" height="60" as="geometry" />
        </mxCell>
        <mxCell id="BQUtY0QNq32hWSpwtPlx-16" style="rounded=0;orthogonalLoop=1;jettySize=auto;html=1;entryX=1;entryY=0;entryDx=0;entryDy=0;exitX=0;exitY=1;exitDx=0;exitDy=0;" edge="1" parent="1" source="BQUtY0QNq32hWSpwtPlx-13" target="BQUtY0QNq32hWSpwtPlx-7">
          <mxGeometry relative="1" as="geometry">
            <mxPoint x="1075" y="420" as="sourcePoint" />
          </mxGeometry>
        </mxCell>
        <mxCell id="BQUtY0QNq32hWSpwtPlx-27" value="Saga Command" style="edgeLabel;html=1;align=center;verticalAlign=middle;resizable=0;points=[];fontSize=11;fontFamily=Helvetica;fontColor=default;" vertex="1" connectable="0" parent="BQUtY0QNq32hWSpwtPlx-16">
          <mxGeometry x="0.0359" y="-2" relative="1" as="geometry">
            <mxPoint as="offset" />
          </mxGeometry>
        </mxCell>
        <mxCell id="BQUtY0QNq32hWSpwtPlx-19" style="edgeStyle=none;shape=connector;rounded=0;orthogonalLoop=1;jettySize=auto;html=1;entryX=0;entryY=1;entryDx=0;entryDy=0;labelBackgroundColor=default;strokeColor=default;align=center;verticalAlign=middle;fontFamily=Helvetica;fontSize=11;fontColor=default;endArrow=classic;exitX=1;exitY=0;exitDx=0;exitDy=0;" edge="1" parent="1" source="BQUtY0QNq32hWSpwtPlx-18" target="BQUtY0QNq32hWSpwtPlx-6">
          <mxGeometry relative="1" as="geometry" />
        </mxCell>
        <mxCell id="BQUtY0QNq32hWSpwtPlx-28" value="Saga Command" style="edgeLabel;html=1;align=center;verticalAlign=middle;resizable=0;points=[];fontSize=11;fontFamily=Helvetica;fontColor=default;" vertex="1" connectable="0" parent="BQUtY0QNq32hWSpwtPlx-19">
          <mxGeometry x="0.161" y="1" relative="1" as="geometry">
            <mxPoint as="offset" />
          </mxGeometry>
        </mxCell>
        <mxCell id="BQUtY0QNq32hWSpwtPlx-18" value="Credited" style="rounded=1;whiteSpace=wrap;html=1;fontFamily=Helvetica;fontSize=11;fontColor=default;" vertex="1" parent="1">
          <mxGeometry x="1060" y="490" width="120" height="60" as="geometry" />
        </mxCell>
        <mxCell id="BQUtY0QNq32hWSpwtPlx-29" value="" style="endArrow=none;html=1;rounded=0;labelBackgroundColor=default;strokeColor=default;align=center;verticalAlign=middle;fontFamily=Helvetica;fontSize=11;fontColor=default;shape=connector;strokeWidth=5;" edge="1" parent="1">
          <mxGeometry width="50" height="50" relative="1" as="geometry">
            <mxPoint x="804" y="751" as="sourcePoint" />
            <mxPoint x="804" y="161" as="targetPoint" />
          </mxGeometry>
        </mxCell>
      </root>
    </mxGraphModel>
  </diagram>
</mxfile>
